<svg id="visual" viewBox="0 0 960 540" width="960" height="540" xmlns="http://www.w3.org/2000/svg" xmlns:xlink="http://www.w3.org/1999/xlink" version="1.1"><path d="M0 472L11.5 467.2C23 462.3 46 452.7 68.8 449.2C91.7 445.7 114.3 448.3 137.2 448.8C160 449.3 183 447.7 205.8 451.3C228.7 455 251.3 464 274.2 467.2C297 470.3 320 467.7 342.8 463.3C365.7 459 388.3 453 411.2 451.7C434 450.3 457 453.7 480 456.8C503 460 526 463 548.8 465.5C571.7 468 594.3 470 617.2 470.2C640 470.3 663 468.7 685.8 465C708.7 461.3 731.3 455.7 754.2 452.3C777 449 800 448 822.8 451.7C845.7 455.3 868.3 463.7 891.2 463.7C914 463.7 937 455.3 948.5 451.2L960 447L960 541L948.5 541C937 541 914 541 891.2 541C868.3 541 845.7 541 822.8 541C800 541 777 541 754.2 541C731.3 541 708.7 541 685.8 541C663 541 640 541 617.2 541C594.3 541 571.7 541 548.8 541C526 541 503 541 480 541C457 541 434 541 411.2 541C388.3 541 365.7 541 342.8 541C320 541 297 541 274.2 541C251.3 541 228.7 541 205.8 541C183 541 160 541 137.2 541C114.3 541 91.7 541 68.8 541C46 541 23 541 11.5 541L0 541Z" fill="#161616" stroke-linecap="round" stroke-linejoin="miter"></path></svg>