<svg id="visual" viewBox="0 0 1920 1080" width="1920" height="1080" xmlns="http://www.w3.org/2000/svg" xmlns:xlink="http://www.w3.org/1999/xlink" version="1.1"><rect width="1920" height="1080" fill="#131313"></rect><g><g transform="translate(158 583)"><path d="M0 -236.6L236.6 0L0 236.6L-236.6 0Z" fill="#161616"></path></g><g transform="translate(1557 629)"><path d="M0 -88L88 0L0 88L-88 0Z" fill="#161616"></path></g><g transform="translate(1804 1047)"><path d="M0 -188L188 0L0 188L-188 0Z" fill="#161616"></path></g><g transform="translate(1346 65)"><path d="M0 -155L155 0L0 155L-155 0Z" fill="#161616"></path></g><g transform="translate(1144 912)"><path d="M0 -179L179 0L0 179L-179 0Z" fill="#161616"></path></g><g transform="translate(1885 268)"><path d="M0 -135L135 0L0 135L-135 0Z" fill="#161616"></path></g><g transform="translate(956 362)"><path d="M0 -211L211 0L0 211L-211 0Z" fill="#161616"></path></g><g transform="translate(534 16)"><path d="M0 -96L96 0L0 96L-96 0Z" fill="#161616"></path></g><g transform="translate(40 25)"><path d="M0 -200L200 0L0 200L-200 0Z" fill="#161616"></path></g><g transform="translate(653 836)"><path d="M0 -106L106 0L0 106L-106 0Z" fill="#161616"></path></g></g></svg>