<svg id="visual" viewBox="0 0 1920 1080" width="1920" height="1080" xmlns="http://www.w3.org/2000/svg" xmlns:xlink="http://www.w3.org/1999/xlink" version="1.1"><rect width="1920" height="1080" fill="#131313"></rect><g><g transform="translate(1384 899)"><path d="M0 -236.6L236.6 0L0 236.6L-236.6 0Z" fill="none" stroke="#161616" stroke-width="2"></path></g><g transform="translate(1201 38)"><path d="M0 -146L146 0L0 146L-146 0Z" fill="none" stroke="#161616" stroke-width="2"></path></g><g transform="translate(559 620)"><path d="M0 -90L90 0L0 90L-90 0Z" fill="none" stroke="#161616" stroke-width="2"></path></g><g transform="translate(1875 425)"><path d="M0 -105L105 0L0 105L-105 0Z" fill="none" stroke="#161616" stroke-width="2"></path></g><g transform="translate(284 219)"><path d="M0 -157L157 0L0 157L-157 0Z" fill="none" stroke="#161616" stroke-width="2"></path></g><g transform="translate(42 907)"><path d="M0 -149L149 0L0 149L-149 0Z" fill="none" stroke="#161616" stroke-width="2"></path></g><g transform="translate(907 954)"><path d="M0 -203L203 0L0 203L-203 0Z" fill="none" stroke="#161616" stroke-width="2"></path></g><g transform="translate(1066 497)"><path d="M0 -145L145 0L0 145L-145 0Z" stroke="#161616" fill="none" stroke-width="2"></path></g><g transform="translate(1874 909)"><path d="M0 -154L154 0L0 154L-154 0Z" stroke="#161616" fill="none" stroke-width="2"></path></g></g></svg>